<svg width="59" height="60" viewBox="0 0 59 60" fill="none" xmlns="http://www.w3.org/2000/svg">
<path d="M16.1021 41.25L19.6667 35C16.9625 35 14.6476 34.0208 12.7219 32.0625C10.7962 30.1042 9.83337 27.75 9.83337 25C9.83337 22.25 10.7962 19.8958 12.7219 17.9375C14.6476 15.9792 16.9625 15 19.6667 15C22.3709 15 24.6858 15.9792 26.6115 17.9375C28.5372 19.8958 29.5 22.25 29.5 25C29.5 25.9583 29.3874 26.8438 29.162 27.6562C28.9367 28.4688 28.5987 29.25 28.148 30L20.3427 43.75C20.1379 44.125 19.8511 44.4271 19.4823 44.6562C19.1136 44.8854 18.7039 45 18.2532 45C17.3108 45 16.604 44.5833 16.1329 43.75C15.6617 42.9167 15.6514 42.0833 16.1021 41.25ZM38.2271 41.25L41.7917 35C39.0875 35 36.7726 34.0208 34.8469 32.0625C32.9212 30.1042 31.9584 27.75 31.9584 25C31.9584 22.25 32.9212 19.8958 34.8469 17.9375C36.7726 15.9792 39.0875 15 41.7917 15C44.4959 15 46.8108 15.9792 48.7365 17.9375C50.6622 19.8958 51.625 22.25 51.625 25C51.625 25.9583 51.5124 26.8438 51.287 27.6562C51.0617 28.4688 50.7237 29.25 50.273 30L42.4678 43.75C42.2629 44.125 41.9761 44.4271 41.6073 44.6562C41.2386 44.8854 40.8289 45 40.3782 45C39.4358 45 38.729 44.5833 38.2579 43.75C37.7867 42.9167 37.7764 42.0833 38.2271 41.25Z" fill="white"/>
</svg>
